<svg width="123" height="39" viewBox="0 0 123 39" fill="none" xmlns="http://www.w3.org/2000/svg">
<g clip-path="url(#clip0_1079_408)">
<mask id="mask0_1079_408" style="mask-type:luminance" maskUnits="userSpaceOnUse" x="0" y="0" width="123" height="39">
<path d="M122.5 0H0.5V38.453H122.5V0Z" fill="white"/>
</mask>
<g mask="url(#mask0_1079_408)">
<path d="M118.304 37.6761V30.2328H107.451V37.6761H103.255V19.8633H107.451V26.6895H118.304V19.8633H122.5V37.6761H118.304Z" fill="#D4AB6E"/>
<path d="M85.4099 35.0359C81.065 35.0359 78.6589 32.5071 78.6589 28.6536C78.6589 25.1974 80.5493 22.3677 85.4099 22.3677C90.3814 22.3677 92.1526 25.4031 92.1526 28.6536C92.1526 32.5861 89.5976 35.0359 85.4099 35.0359ZM85.2145 19.0859C78.4704 19.0859 74.1348 23.0487 74.1348 28.8674C74.1348 35.0986 79.237 38.4525 85.2145 38.4525C91.1052 38.4525 96.5358 35.3601 96.5358 28.7733C96.5438 23.2556 92.2926 19.0859 85.2145 19.0859Z" fill="#D4AB6E"/>
<path d="M62.3437 23.4147V37.6761H58.1398V23.4147H50.8188V19.8633H69.7502V23.4147H62.3437Z" fill="#D4AB6E"/>
<path d="M49.6306 37.6761L40.4031 19.8633H34.184L24.8779 37.6761H29.7848L32.0636 33.1811H42.4576L44.7087 37.6761H49.6306ZM40.7546 29.8203H33.7539L37.2155 23.1962H37.4179L40.7546 29.8203Z" fill="#D4AB6E"/>
<path fill-rule="evenodd" clip-rule="evenodd" d="M18.5283 19.8244H0.5L18.5283 28.9272V19.8244ZM38.3151 18.1626H20.288V9.06445L38.3151 18.1626ZM20.2452 19.8721V37.9882L29.3016 19.8721H20.2452ZM18.5699 18.1289V0L9.5182 18.1208L18.5699 18.1289Z" fill="#D4AB6E"/>
</g>
</g>
<defs>
<clipPath id="clip0_1079_408">
<rect width="122" height="39" fill="white" transform="translate(0.5)"/>
</clipPath>
</defs>
</svg>
